<?xml version="1.0" encoding="utf-8"?>
<!-- Generator: Adobe Illustrator 19.1.0, SVG Export Plug-In . SVG Version: 6.00 Build 0)  -->
<svg version="1.1" id="Camada_1" xmlns="http://www.w3.org/2000/svg" xmlns:xlink="http://www.w3.org/1999/xlink" x="0px" y="0px"
	 viewBox="0 0 298 112" style="enable-background:new 0 0 298 112;" xml:space="preserve">
<style type="text/css">
	.st0{fill:#ffffff;}
	.st1{fill:#D2921C;}
	.st2{fill:#ffffff;}
</style>
<path class="st0" d="M0,53.2h19.6c0.2,3.9,1.6,6.7,4.3,8.7c2.9,1.9,6.7,2.9,11.5,2.9c3.5,0,6.4-0.7,8.9-2c2.3-1.3,3.5-3.2,3.5-5.5
	c0-3.5-4-6.1-12.1-7.8c-3.5-0.6-6.1-1.2-7.8-1.7c-10.2-2.5-17-5.5-20.5-8.9C3.5,35.4,1.6,30.8,1.6,25c0-7.3,2.8-13.4,8.4-18.2
	c5.8-4.4,13.3-6.6,22.5-6.6c10,0,18,2.2,24,6.6c5.6,4.8,8.6,11.1,8.9,18.8H53.1c-3.7,0-6.4-1.6-8.4-4.9c-0.8-0.8-1.5-1.5-2.3-2.3
	c-2.3-1.7-5.5-2.6-9.5-2.6c-3.9,0-6.7,0.6-8.7,1.7c-1.7,1.2-2.6,2.9-2.6,5.2c0,3.1,5,5.7,15,7.8c1.2,0.4,2.2,0.7,3,0.9
	c0.9,0.2,1.7,0.3,2.5,0.3c9.8,2.5,16.6,5.4,20.5,8.7c3.7,3.5,5.5,8.1,5.5,13.9c0,8.5-3.1,15-9.2,19.6c-5.8,4.2-14.4,6.3-26,6.3
	c-11,0-19.1-2.2-24.5-6.6C2.8,69.2,0,62.7,0,54.3C0,54.3,0,53.2,0,53.2z"/>
<path class="st0" d="M126.1,54.9h14.4c-2.1,8.1-6.2,14.2-12.1,18.5c-6,4.4-13.5,6.6-22.5,6.6c-11,0-19.5-3.6-25.7-10.7
	C74,62.4,71,52.5,71,39.6c0-12.3,3-21.9,8.9-28.9C86.1,3.6,94.6,0,105.6,0c11.5,0,20.5,3.5,26.8,10.4c6.2,7.1,9.2,17,9.2,29.7
	c0,0.8,0,1.4,0,2s0,1,0,1.2c0,1-0.1,1.6-0.3,2H91.4c0.2,6,1.6,10.4,4.3,13.3c2.5,3.1,6.2,4.6,11.3,4.6c3.3,0,6.1-0.7,8.4-2
	c0.6-0.2,1.1-0.5,1.6-1s1-1,1.6-1.6c0.2-0.6,0.9-1.3,2.2-2.3C122,55.4,123.8,54.9,126.1,54.9z M91.5,32.4h29.4
	c-0.4-5.2-1.7-9-4-11.5c-2.5-2.7-6.1-4-10.7-4c-4.2,0-7.7,1.3-10.4,4C93.1,23.5,91.7,27.4,91.5,32.4z"/>
<path class="st0" d="M146.4,78.6V41.3c0-7.5,1.1-13.8,3.3-18.9s5.2-9.2,9.1-12.3c3.7-2.9,7.9-5,12.8-6.3c4.9-1.3,10-2,15.2-2
	c0.4,0,0.9,0,1.4,0c0.6,0,1.1,0,1.4,0v20.5H183c-5.6,0-9.7,1.3-12.4,4s-4,6.9-4,12.7v39.5h-20.2V78.6z"/>
<path class="st0" d="M196.9,1.8h10.4c2.7,0,5,1,6.9,2.9s2.9,4.2,2.9,6.9v66.9h-20.2L196.9,1.8L196.9,1.8z"/>
<circle class="st1" cx="233.2" cy="67.5" r="11.5"/>
<path class="st0" d="M288.2,10.4C281.9,3.5,272.9,0,261.4,0c-11,0-19.5,3.6-25.7,10.7c-6,6.9-8.9,16.5-8.9,28.9
	c0,5.1,0.5,9.8,1.5,14c1.8-0.8,3.9-1.3,6-1.3c8.2,0,14.8,6.6,14.8,14.8c0,3.7-1.3,7-3.5,9.6c4.6,2.2,10,3.4,16.2,3.4
	c9,0,16.5-2.2,22.5-6.6c6-4.2,10-10.4,12.1-18.5H282c-2.3,0-4.1,0.5-5.3,1.4c-1.3,1-2,1.7-2.2,2.3c-0.6,0.6-1.1,1.1-1.6,1.6
	s-1,0.8-1.6,1c-2.3,1.3-5.1,2-8.4,2c-5,0-8.8-1.5-11.3-4.6c-2.7-2.9-4.1-7.3-4.3-13.3h49.8c0.2-0.4,0.3-1.1,0.3-2c0-0.2,0-0.6,0-1.2
	s0-1.2,0-2C297.4,27.5,294.3,17.6,288.2,10.4z M247.2,32.4c0.2-5,1.6-8.8,4.3-11.5c2.7-2.7,6.2-4,10.4-4c4.6,0,8.2,1.3,10.7,4
	c2.3,2.5,3.7,6.3,4,11.5H247.2z"/>
<g>
	<path class="st2" d="M232.3,86.7h1.9c0.5,0,0.9,0.2,1.3,0.6c0.4,0.4,0.5,0.8,0.5,1.3v10.6c0,2.6-0.7,4.3-2.2,5.2s-3.1,1.4-4.9,1.4
		c-0.9,0-1.9-0.2-2.8-0.5c-0.9-0.3-1.6-0.8-2.2-1.5c-1.1-1.3-1.6-3.2-1.6-5.5s0.5-4.1,1.6-5.5c1.1-1.4,2.5-2.1,4.2-2.1
		c0.9,0,1.7,0.2,2.4,0.5c0.7,0.4,1.3,1,1.7,1.7v-6.2H232.3z M226.1,98.1c0,1.5,0.3,2.6,0.8,3.3s1.3,1.1,2.3,1.1s1.7-0.4,2.3-1.1
		c0.5-0.8,0.8-1.9,0.8-3.3c0-1.3-0.3-2.3-0.8-3.1c-0.6-0.7-1.4-1.1-2.3-1.1c-0.9,0-1.7,0.4-2.2,1.1
		C226.4,95.8,226.1,96.8,226.1,98.1z"/>
	<path class="st2" d="M247,101h2.7c-0.4,1.5-1.2,2.7-2.3,3.5c-1.1,0.8-2.5,1.3-4.3,1.3c-2.1,0-3.7-0.7-4.9-2
		c-1.2-1.3-1.7-3.2-1.7-5.6c0-2.3,0.6-4.1,1.7-5.5c1.2-1.3,2.8-2,4.9-2c2.2,0,3.9,0.7,5.1,2s1.7,3.2,1.7,5.6c0,0.1,0,0.3,0,0.4
		s0,0.2,0,0.2c0,0.2,0,0.3-0.1,0.4h-9.4c0,1.1,0.3,2,0.8,2.5c0.5,0.6,1.2,0.9,2.1,0.9c0.6,0,1.1-0.1,1.6-0.4c0.1,0,0.2-0.1,0.3-0.2
		c0.1-0.1,0.2-0.2,0.3-0.3c0-0.1,0.2-0.3,0.4-0.4C246.3,101.1,246.6,101,247,101z M240.5,96.8h5.6c-0.1-1-0.3-1.7-0.8-2.2
		s-1.1-0.8-2-0.8c-0.8,0-1.5,0.3-2,0.8S240.5,95.8,240.5,96.8z"/>
	<path class="st2" d="M250.5,100.7h3.7c0,0.7,0.3,1.3,0.8,1.6c0.5,0.4,1.3,0.5,2.2,0.5c0.7,0,1.2-0.1,1.7-0.4c0.4-0.3,0.7-0.6,0.7-1
		c0-0.7-0.8-1.1-2.3-1.5c-0.7-0.1-1.1-0.2-1.5-0.3c-1.9-0.5-3.2-1-3.9-1.7c-0.7-0.7-1.1-1.5-1.1-2.6c0-1.4,0.5-2.5,1.6-3.4
		c1.1-0.8,2.5-1.3,4.3-1.3c1.9,0,3.4,0.4,4.5,1.3c1.1,0.9,1.6,2.1,1.7,3.5h-2.3c-0.7,0-1.2-0.3-1.6-0.9c-0.1-0.1-0.3-0.3-0.4-0.4
		c-0.4-0.3-1-0.5-1.8-0.5c-0.7,0-1.3,0.1-1.6,0.3c-0.3,0.2-0.5,0.5-0.5,1c0,0.6,0.9,1.1,2.8,1.5c0.2,0.1,0.4,0.1,0.6,0.2
		c0.2,0,0.3,0.1,0.5,0.1c1.9,0.5,3.1,1,3.9,1.6c0.7,0.7,1,1.5,1,2.6c0,1.6-0.6,2.8-1.7,3.7c-1.1,0.8-2.7,1.2-4.9,1.2
		c-2.1,0-3.6-0.4-4.6-1.3c-1.1-0.8-1.6-2.1-1.6-3.7v-0.1H250.5z"/>
	<path class="st2" d="M264.6,86.7h2c0.5,0,0.9,0.2,1.3,0.5c0.4,0.4,0.5,0.8,0.5,1.3v1.1h-3.8V86.7z M264.6,91h2
		c0.5,0,0.9,0.2,1.3,0.5c0.4,0.4,0.5,0.8,0.5,1.3v12.6h-3.8V91z"/>
	<path class="st2" d="M278.4,104.6v-0.9c-0.7,1-1.5,1.7-2.6,1.9s-2.2,0.2-3.3-0.3s-2-1.2-2.8-2.4s-1.2-2.7-1.2-4.7
		c0-2.3,0.5-4.1,1.6-5.5c1-1.4,2.7-2.1,5-2.1c1.7,0,3.4,0.5,4.9,1.4c1.5,0.9,2.2,2.7,2.2,5.2v7.7c0,2.5-0.7,4.3-2.2,5.2
		s-3.1,1.4-4.9,1.4c-3.3,0-5.4-1.6-6.2-4.7h4c0.3,0.5,0.7,0.9,1.3,1.2c0.6,0.3,1.2,0.3,1.8,0.2c0.6-0.1,1.1-0.5,1.6-1.1
		C278.1,106.6,278.4,105.8,278.4,104.6z M272.2,98.3c0,2.5,0.7,3.9,2.2,4.2s2.5-0.1,3.2-1c0.3-0.4,0.6-1,0.7-1.9s0.2-1.7,0-2.5
		c-0.1-0.8-0.4-1.6-0.9-2.2c-0.5-0.7-1.2-1-2.1-1c-1.2,0-2.1,0.5-2.5,1.4C272.4,96.1,272.2,97.2,272.2,98.3z"/>
	<path class="st2" d="M295.7,105.5h-1.9c-0.5,0-1-0.2-1.3-0.5s-0.5-0.8-0.5-1.3v-7.5c0-0.9-0.3-1.5-0.8-1.9
		c-0.5-0.4-1.1-0.6-1.8-0.6s-1.2,0.2-1.7,0.6c-0.5,0.4-0.8,1-0.8,1.9v9.3h-3.8V97c0-2.5,0.6-4.1,1.9-5c1.3-0.8,2.7-1.3,4.3-1.4
		c1.6,0,3.1,0.4,4.4,1.3c1.3,0.8,2,2.5,2,5.1L295.7,105.5L295.7,105.5z"/>
</g>
</svg>
